<?xml version="1.0" encoding="utf-8"?>
<!-- Generator: Adobe Illustrator 16.0.0, SVG Export Plug-In . SVG Version: 6.00 Build 0)  -->
<!DOCTYPE svg PUBLIC "-//W3C//DTD SVG 1.1//EN" "http://www.w3.org/Graphics/SVG/1.1/DTD/svg11.dtd">
<svg version="1.1" id="Layer_1" xmlns="http://www.w3.org/2000/svg" xmlns:xlink="http://www.w3.org/1999/xlink" x="0px" y="0px"
	 width="619.472px" height="672.363px" viewBox="0 0 619.472 672.363" enable-background="new 0 0 619.472 672.363"
	 xml:space="preserve">
<path fill="#72B5CF" d="M534.619,336.188c0,124.196-100.687,224.879-224.883,224.879S84.853,460.384,84.853,336.188
	c0-124.2,100.688-224.883,224.884-224.883S534.619,211.987,534.619,336.188z"/>
<g>
	<g>
		<path fill="#FF2455" d="M251.919,639.732c0.22,0,0.415,0.086,0.585,0.256l1.59,1.725c-0.88,1.09-1.963,1.926-3.248,2.506
			c-1.284,0.58-2.826,0.869-4.627,0.869c-1.609,0-3.058-0.275-4.342-0.824c-1.285-0.551-2.383-1.314-3.293-2.295
			s-1.607-2.15-2.093-3.51c-0.485-1.361-0.728-2.846-0.728-4.455c0-1.631,0.26-3.123,0.78-4.479s1.253-2.521,2.197-3.502
			c0.945-0.98,2.073-1.742,3.383-2.287s2.76-0.818,4.351-0.818c1.579,0,2.982,0.26,4.207,0.779c1.225,0.521,2.268,1.201,3.127,2.041
			l-1.35,1.875c-0.08,0.119-0.183,0.225-0.308,0.314s-0.298,0.135-0.518,0.135c-0.149,0-0.306-0.041-0.465-0.127
			c-0.16-0.084-0.335-0.189-0.524-0.314c-0.191-0.125-0.41-0.264-0.66-0.412c-0.25-0.15-0.541-0.289-0.871-0.414
			s-0.712-0.229-1.146-0.314c-0.436-0.084-0.938-0.127-1.508-0.127c-0.971,0-1.857,0.172-2.662,0.518
			c-0.806,0.344-1.498,0.844-2.078,1.5c-0.58,0.654-1.029,1.455-1.35,2.4c-0.32,0.943-0.48,2.021-0.48,3.232
			c0,1.219,0.173,2.305,0.518,3.254c0.346,0.951,0.813,1.75,1.402,2.4s1.285,1.146,2.086,1.492c0.799,0.346,1.659,0.518,2.58,0.518
			c0.549,0,1.047-0.029,1.492-0.09c0.444-0.061,0.854-0.154,1.229-0.285c0.375-0.129,0.729-0.297,1.065-0.502
			c0.334-0.205,0.667-0.457,0.997-0.758c0.101-0.09,0.205-0.162,0.315-0.217C251.684,639.762,251.799,639.732,251.919,639.732z"/>
		<path fill="#FF2455" d="M255.924,631.604c1.77-1.621,3.9-2.43,6.39-2.43c0.899,0,1.705,0.146,2.415,0.441s1.311,0.705,1.801,1.23
			c0.489,0.525,0.861,1.152,1.117,1.883c0.254,0.73,0.383,1.529,0.383,2.4v9.719h-1.681c-0.351,0-0.62-0.053-0.81-0.156
			c-0.19-0.105-0.34-0.318-0.451-0.639l-0.329-1.109c-0.39,0.35-0.771,0.658-1.14,0.922c-0.371,0.266-0.756,0.488-1.156,0.668
			c-0.399,0.18-0.826,0.316-1.281,0.412s-0.958,0.143-1.508,0.143c-0.65,0-1.25-0.088-1.801-0.262
			c-0.549-0.176-1.024-0.438-1.424-0.787c-0.4-0.352-0.711-0.785-0.931-1.307c-0.22-0.52-0.33-1.125-0.33-1.814
			c0-0.391,0.065-0.777,0.195-1.162s0.343-0.752,0.638-1.104c0.295-0.35,0.677-0.68,1.146-0.988c0.471-0.311,1.048-0.58,1.732-0.811
			c0.686-0.23,1.482-0.418,2.393-0.563s1.951-0.232,3.121-0.264v-0.898c0-1.031-0.221-1.793-0.66-2.289
			c-0.44-0.494-1.075-0.742-1.905-0.742c-0.601,0-1.098,0.07-1.493,0.211c-0.395,0.141-0.742,0.297-1.042,0.473
			c-0.3,0.174-0.572,0.332-0.817,0.473c-0.245,0.139-0.518,0.209-0.817,0.209c-0.261,0-0.479-0.066-0.66-0.203
			c-0.181-0.135-0.325-0.291-0.435-0.471L255.924,631.604z M264.414,638.277c-1.07,0.051-1.971,0.143-2.701,0.277
			c-0.729,0.137-1.314,0.309-1.754,0.518c-0.44,0.211-0.756,0.455-0.945,0.736c-0.189,0.279-0.285,0.584-0.285,0.914
			c0,0.65,0.192,1.115,0.578,1.395c0.385,0.281,0.887,0.422,1.507,0.422c0.76,0,1.417-0.139,1.973-0.414
			c0.556-0.273,1.097-0.691,1.628-1.252V638.277z"/>
		<path fill="#FF2455" d="M275.004,632.129c0.48-0.92,1.05-1.643,1.71-2.168c0.659-0.525,1.44-0.787,2.34-0.787
			c0.71,0,1.28,0.154,1.71,0.465l-0.24,2.775c-0.05,0.18-0.122,0.307-0.217,0.381c-0.096,0.076-0.223,0.113-0.383,0.113
			c-0.15,0-0.373-0.025-0.668-0.074c-0.295-0.051-0.582-0.076-0.862-0.076c-0.41,0-0.774,0.061-1.095,0.18
			c-0.32,0.121-0.607,0.293-0.863,0.518c-0.254,0.225-0.479,0.498-0.674,0.818c-0.195,0.32-0.378,0.686-0.548,1.094v9.48h-3.705
			v-15.389h2.175c0.38,0,0.645,0.066,0.795,0.201s0.25,0.379,0.301,0.729L275.004,632.129z"/>
		<path fill="#FF2455" d="M286.448,622.559v22.289h-3.705v-22.289H286.448z"/>
		<path fill="#FF2455" d="M296.963,629.219c1.14,0,2.178,0.184,3.112,0.555c0.935,0.369,1.735,0.895,2.399,1.574
			c0.666,0.68,1.178,1.51,1.538,2.49s0.54,2.076,0.54,3.285c0,1.221-0.18,2.32-0.54,3.301c-0.36,0.979-0.872,1.814-1.538,2.504
			c-0.664,0.689-1.465,1.221-2.399,1.59c-0.935,0.371-1.973,0.555-3.112,0.555c-1.15,0-2.195-0.184-3.135-0.555
			c-0.94-0.369-1.743-0.9-2.408-1.59s-1.18-1.525-1.545-2.504c-0.365-0.98-0.547-2.08-0.547-3.301c0-1.209,0.182-2.305,0.547-3.285
			s0.88-1.811,1.545-2.49s1.468-1.205,2.408-1.574C294.768,629.402,295.813,629.219,296.963,629.219z M296.963,642.223
			c1.279,0,2.228-0.43,2.842-1.289c0.615-0.861,0.923-2.121,0.923-3.781c0-1.658-0.308-2.924-0.923-3.795
			c-0.614-0.869-1.563-1.305-2.842-1.305c-1.301,0-2.263,0.438-2.888,1.313s-0.938,2.139-0.938,3.787
			c0,1.65,0.313,2.908,0.938,3.773S295.662,642.223,296.963,642.223z"/>
		<path fill="#FF2455" d="M316.777,632.459c-0.1,0.16-0.205,0.271-0.314,0.336c-0.11,0.066-0.25,0.098-0.42,0.098
			c-0.18,0-0.373-0.049-0.578-0.15c-0.205-0.1-0.442-0.211-0.713-0.336c-0.27-0.125-0.576-0.238-0.922-0.338
			c-0.345-0.1-0.752-0.15-1.223-0.15c-0.73,0-1.303,0.156-1.717,0.465c-0.416,0.311-0.623,0.715-0.623,1.215
			c0,0.33,0.107,0.607,0.322,0.832c0.215,0.227,0.5,0.424,0.855,0.594c0.354,0.17,0.758,0.322,1.207,0.457
			c0.45,0.135,0.908,0.283,1.373,0.443s0.922,0.342,1.372,0.547s0.853,0.465,1.208,0.779c0.354,0.316,0.64,0.693,0.854,1.133
			c0.215,0.441,0.323,0.971,0.323,1.59c0,0.74-0.133,1.424-0.398,2.049c-0.265,0.625-0.657,1.164-1.178,1.619
			c-0.52,0.455-1.162,0.811-1.927,1.064c-0.765,0.256-1.647,0.383-2.647,0.383c-0.53,0-1.048-0.047-1.553-0.143
			s-0.99-0.227-1.455-0.396s-0.895-0.371-1.29-0.602c-0.396-0.229-0.742-0.479-1.042-0.75l0.854-1.408
			c0.11-0.17,0.24-0.301,0.39-0.391c0.15-0.09,0.34-0.135,0.57-0.135s0.447,0.064,0.652,0.195c0.205,0.129,0.443,0.27,0.713,0.42
			c0.27,0.148,0.588,0.289,0.953,0.42c0.364,0.129,0.826,0.193,1.387,0.193c0.439,0,0.817-0.051,1.133-0.156
			c0.314-0.105,0.574-0.242,0.779-0.412s0.355-0.369,0.451-0.594c0.094-0.225,0.142-0.457,0.142-0.697
			c0-0.359-0.107-0.654-0.322-0.885c-0.216-0.23-0.5-0.43-0.854-0.6c-0.355-0.17-0.761-0.322-1.215-0.457
			c-0.456-0.137-0.921-0.283-1.396-0.443c-0.476-0.16-0.94-0.348-1.396-0.563s-0.859-0.488-1.215-0.818
			c-0.355-0.328-0.64-0.734-0.855-1.215c-0.215-0.479-0.322-1.059-0.322-1.738c0-0.631,0.125-1.23,0.375-1.801
			s0.617-1.068,1.104-1.492c0.484-0.426,1.09-0.766,1.814-1.02c0.725-0.256,1.563-0.383,2.513-0.383c1.06,0,2.024,0.174,2.895,0.523
			c0.87,0.352,1.595,0.811,2.175,1.381L316.777,632.459z"/>
		<path fill="#FF2455" d="M340.027,634.004c0,1.59-0.264,3.049-0.795,4.379c-0.529,1.33-1.274,2.475-2.234,3.436
			c-0.96,0.959-2.115,1.705-3.465,2.234c-1.35,0.531-2.85,0.795-4.5,0.795h-8.266v-21.689h8.266c1.65,0,3.15,0.268,4.5,0.803
			s2.505,1.279,3.465,2.234s1.705,2.098,2.234,3.428C339.764,630.953,340.027,632.414,340.027,634.004z M335.889,634.004
			c0-1.191-0.158-2.258-0.473-3.203c-0.315-0.945-0.771-1.744-1.365-2.4c-0.596-0.654-1.315-1.156-2.16-1.508
			c-0.846-0.35-1.798-0.525-2.857-0.525h-4.215v15.271h4.215c1.06,0,2.012-0.176,2.857-0.525c0.845-0.35,1.564-0.854,2.16-1.508
			c0.595-0.654,1.05-1.455,1.365-2.4C335.73,636.26,335.889,635.193,335.889,634.004z"/>
		<path fill="#FF2455" d="M356.049,629.459v15.389h-2.266c-0.49,0-0.8-0.225-0.93-0.674l-0.255-1.23
			c-0.63,0.641-1.325,1.158-2.085,1.553s-1.655,0.592-2.686,0.592c-0.84,0-1.582-0.143-2.227-0.428
			c-0.646-0.285-1.188-0.688-1.628-1.207s-0.772-1.137-0.997-1.852c-0.226-0.715-0.338-1.504-0.338-2.363v-9.779h3.705v9.779
			c0,0.939,0.217,1.668,0.652,2.182c0.436,0.516,1.088,0.773,1.957,0.773c0.641,0,1.24-0.143,1.801-0.428
			c0.56-0.285,1.09-0.678,1.59-1.178v-11.129H356.049z"/>
		<path fill="#FF2455" d="M364.838,645.088c-1.34,0-2.367-0.377-3.082-1.133c-0.715-0.754-1.072-1.797-1.072-3.127v-8.596h-1.575
			c-0.2,0-0.37-0.064-0.51-0.193c-0.14-0.131-0.21-0.326-0.21-0.586v-1.471l2.475-0.404l0.78-4.199
			c0.05-0.201,0.145-0.355,0.284-0.465c0.141-0.111,0.32-0.166,0.541-0.166h1.92v4.846h4.109v2.639h-4.109v8.34
			c0,0.48,0.117,0.855,0.352,1.125c0.235,0.271,0.559,0.406,0.969,0.406c0.229,0,0.422-0.027,0.577-0.082
			c0.155-0.057,0.29-0.113,0.405-0.174c0.114-0.059,0.217-0.117,0.307-0.172s0.18-0.082,0.271-0.082c0.11,0,0.2,0.027,0.271,0.082
			c0.069,0.055,0.145,0.137,0.225,0.248l1.109,1.799c-0.539,0.451-1.16,0.791-1.859,1.02
			C366.313,644.973,365.588,645.088,364.838,645.088z"/>
		<path fill="#FF2455" d="M384.848,629.459l-8.385,19.619c-0.109,0.26-0.252,0.457-0.428,0.592
			c-0.175,0.135-0.441,0.203-0.803,0.203h-2.76l2.881-6.18l-6.226-14.234h3.255c0.29,0,0.518,0.068,0.683,0.209
			s0.288,0.301,0.368,0.48l3.27,7.98c0.109,0.27,0.203,0.539,0.277,0.809c0.075,0.271,0.147,0.545,0.218,0.826
			c0.09-0.281,0.18-0.559,0.271-0.834c0.09-0.273,0.189-0.547,0.299-0.816l3.09-7.965c0.08-0.201,0.213-0.365,0.398-0.496
			c0.185-0.129,0.393-0.193,0.622-0.193H384.848z"/>
	</g>
</g>
<g>
	<g>
		<path fill="#FF2455" d="M474.957,539.377v21.689h-3.556v-14.01c0-0.561,0.03-1.164,0.091-1.814l-6.556,12.314
			c-0.31,0.59-0.785,0.885-1.425,0.885h-0.57c-0.641,0-1.115-0.295-1.425-0.885l-6.63-12.359c0.029,0.33,0.055,0.654,0.074,0.975
			c0.021,0.32,0.031,0.615,0.031,0.885v14.01h-3.556v-21.689h3.045c0.181,0,0.335,0.006,0.465,0.016s0.247,0.035,0.353,0.074
			c0.105,0.041,0.2,0.105,0.285,0.195s0.168,0.209,0.248,0.359l6.494,12.045c0.17,0.32,0.328,0.65,0.473,0.99
			s0.287,0.689,0.428,1.051c0.14-0.371,0.285-0.729,0.436-1.072c0.149-0.346,0.309-0.678,0.479-0.998l6.405-12.016
			c0.08-0.15,0.164-0.27,0.254-0.359c0.091-0.09,0.188-0.154,0.293-0.195c0.105-0.039,0.223-0.064,0.353-0.074
			s0.285-0.016,0.466-0.016H474.957z"/>
		<path fill="#FF2455" d="M481.587,553.836c0.06,0.791,0.2,1.473,0.42,2.049c0.22,0.574,0.51,1.049,0.87,1.424
			c0.359,0.375,0.787,0.656,1.282,0.84c0.495,0.186,1.042,0.279,1.643,0.279s1.118-0.07,1.552-0.211
			c0.436-0.141,0.815-0.295,1.141-0.465c0.324-0.17,0.609-0.324,0.855-0.465c0.244-0.141,0.482-0.211,0.712-0.211
			c0.31,0,0.54,0.115,0.69,0.346l1.064,1.35c-0.41,0.48-0.869,0.883-1.38,1.207c-0.51,0.326-1.042,0.586-1.597,0.781
			c-0.556,0.195-1.121,0.332-1.695,0.412c-0.576,0.08-1.133,0.119-1.673,0.119c-1.07,0-2.065-0.178-2.985-0.531
			c-0.92-0.355-1.72-0.881-2.399-1.576c-0.681-0.693-1.216-1.555-1.604-2.58c-0.391-1.023-0.586-2.211-0.586-3.563
			c0-1.049,0.17-2.037,0.51-2.961c0.34-0.926,0.828-1.73,1.463-2.416c0.635-0.684,1.41-1.227,2.325-1.627s1.947-0.6,3.097-0.6
			c0.971,0,1.865,0.154,2.686,0.465s1.525,0.762,2.115,1.357c0.59,0.594,1.053,1.324,1.387,2.189
			c0.336,0.865,0.504,1.854,0.504,2.963c0,0.561-0.061,0.938-0.181,1.133s-0.351,0.291-0.69,0.291H481.587z M488.652,551.602
			c0-0.48-0.068-0.932-0.203-1.357c-0.135-0.424-0.338-0.797-0.607-1.117s-0.613-0.572-1.027-0.758
			c-0.416-0.186-0.898-0.277-1.447-0.277c-1.07,0-1.913,0.305-2.527,0.916c-0.615,0.609-1.008,1.475-1.178,2.594H488.652z"/>
		<path fill="#FF2455" d="M499.736,561.307c-1.34,0-2.367-0.377-3.082-1.133c-0.715-0.754-1.072-1.797-1.072-3.127v-8.596h-1.575
			c-0.2,0-0.37-0.064-0.51-0.193c-0.14-0.131-0.21-0.326-0.21-0.586v-1.471l2.475-0.404l0.78-4.199
			c0.05-0.201,0.145-0.355,0.284-0.465c0.141-0.111,0.32-0.166,0.541-0.166h1.92v4.846h4.109v2.639h-4.109v8.34
			c0,0.48,0.117,0.855,0.352,1.125c0.235,0.271,0.559,0.406,0.969,0.406c0.229,0,0.422-0.027,0.577-0.082
			c0.155-0.057,0.29-0.113,0.405-0.174c0.114-0.059,0.217-0.117,0.307-0.172s0.18-0.082,0.271-0.082c0.11,0,0.2,0.027,0.271,0.082
			c0.069,0.055,0.145,0.137,0.225,0.248l1.109,1.799c-0.539,0.451-1.16,0.791-1.859,1.02
			C501.212,561.191,500.486,561.307,499.736,561.307z"/>
		<path fill="#FF2455" d="M509.262,548.348c0.48-0.92,1.05-1.643,1.71-2.168c0.659-0.525,1.44-0.787,2.34-0.787
			c0.71,0,1.28,0.154,1.71,0.465l-0.24,2.775c-0.05,0.18-0.122,0.307-0.217,0.381c-0.096,0.076-0.223,0.113-0.383,0.113
			c-0.15,0-0.373-0.025-0.668-0.074c-0.295-0.051-0.582-0.076-0.862-0.076c-0.41,0-0.774,0.061-1.095,0.18
			c-0.32,0.121-0.607,0.293-0.863,0.518c-0.254,0.225-0.479,0.498-0.674,0.818c-0.195,0.32-0.378,0.686-0.548,1.094v9.48h-3.705
			v-15.389h2.175c0.38,0,0.645,0.066,0.795,0.201s0.25,0.379,0.301,0.729L509.262,548.348z"/>
		<path fill="#FF2455" d="M523.332,545.438c1.139,0,2.177,0.184,3.111,0.555c0.936,0.369,1.735,0.895,2.4,1.574
			s1.178,1.51,1.537,2.49c0.36,0.98,0.541,2.076,0.541,3.285c0,1.221-0.181,2.32-0.541,3.301c-0.359,0.979-0.872,1.814-1.537,2.504
			s-1.465,1.221-2.4,1.59c-0.935,0.371-1.973,0.555-3.111,0.555c-1.15,0-2.195-0.184-3.136-0.555c-0.94-0.369-1.743-0.9-2.407-1.59
			c-0.666-0.689-1.18-1.525-1.545-2.504c-0.365-0.98-0.548-2.08-0.548-3.301c0-1.209,0.183-2.305,0.548-3.285
			s0.879-1.811,1.545-2.49c0.664-0.68,1.467-1.205,2.407-1.574C521.137,545.621,522.182,545.438,523.332,545.438z M523.332,558.441
			c1.279,0,2.227-0.43,2.842-1.289c0.615-0.861,0.922-2.121,0.922-3.781c0-1.658-0.307-2.924-0.922-3.795
			c-0.615-0.869-1.563-1.305-2.842-1.305c-1.301,0-2.264,0.438-2.889,1.313s-0.938,2.139-0.938,3.787
			c0,1.65,0.313,2.908,0.938,3.773S522.031,558.441,523.332,558.441z"/>
		<path fill="#FF2455" d="M538.106,541.191c0,0.32-0.065,0.621-0.195,0.9s-0.302,0.525-0.518,0.734
			c-0.215,0.211-0.468,0.379-0.757,0.504c-0.291,0.125-0.601,0.188-0.931,0.188c-0.319,0-0.622-0.063-0.907-0.188
			s-0.533-0.293-0.742-0.504c-0.211-0.209-0.378-0.455-0.503-0.734s-0.188-0.58-0.188-0.9c0-0.33,0.063-0.639,0.188-0.93
			c0.125-0.289,0.292-0.539,0.503-0.75c0.209-0.209,0.457-0.377,0.742-0.502s0.588-0.188,0.907-0.188c0.33,0,0.64,0.063,0.931,0.188
			c0.289,0.125,0.542,0.293,0.757,0.502c0.216,0.211,0.388,0.461,0.518,0.75C538.041,540.553,538.106,540.861,538.106,541.191z
			 M537.596,545.678v15.389h-3.719v-15.389H537.596z"/>
		<path fill="#FF2455" d="M554.74,538.777v22.289h-2.264c-0.49,0-0.801-0.225-0.931-0.674l-0.315-1.486
			c-0.619,0.711-1.332,1.285-2.137,1.727c-0.806,0.439-1.743,0.658-2.813,0.658c-0.84,0-1.61-0.174-2.311-0.523
			c-0.699-0.352-1.303-0.857-1.807-1.523c-0.506-0.664-0.896-1.486-1.171-2.467c-0.274-0.98-0.412-2.1-0.412-3.361
			c0-1.139,0.155-2.199,0.465-3.18c0.31-0.979,0.755-1.83,1.335-2.549c0.58-0.721,1.275-1.283,2.085-1.688
			c0.81-0.406,1.72-0.607,2.729-0.607c0.86,0,1.596,0.135,2.205,0.404c0.61,0.27,1.155,0.635,1.636,1.096v-8.115H554.74z
			 M551.036,549.607c-0.421-0.51-0.878-0.871-1.372-1.08c-0.496-0.211-1.028-0.316-1.598-0.316c-0.561,0-1.065,0.105-1.516,0.316
			c-0.449,0.209-0.835,0.527-1.154,0.951c-0.32,0.426-0.565,0.967-0.735,1.621c-0.171,0.654-0.255,1.428-0.255,2.316
			c0,0.9,0.072,1.664,0.217,2.289s0.354,1.135,0.623,1.529s0.6,0.68,0.99,0.855c0.39,0.174,0.824,0.262,1.305,0.262
			c0.77,0,1.425-0.16,1.965-0.48c0.54-0.318,1.05-0.773,1.53-1.363V549.607z"/>
		<path fill="#FF2455" d="M561.251,553.836c0.06,0.791,0.2,1.473,0.42,2.049c0.22,0.574,0.51,1.049,0.87,1.424
			c0.359,0.375,0.787,0.656,1.282,0.84c0.495,0.186,1.042,0.279,1.643,0.279s1.118-0.07,1.552-0.211
			c0.436-0.141,0.815-0.295,1.141-0.465c0.324-0.17,0.609-0.324,0.855-0.465c0.244-0.141,0.482-0.211,0.712-0.211
			c0.31,0,0.54,0.115,0.69,0.346l1.064,1.35c-0.41,0.48-0.869,0.883-1.38,1.207c-0.51,0.326-1.042,0.586-1.597,0.781
			c-0.556,0.195-1.121,0.332-1.695,0.412c-0.576,0.08-1.133,0.119-1.673,0.119c-1.07,0-2.065-0.178-2.985-0.531
			c-0.92-0.355-1.72-0.881-2.399-1.576c-0.681-0.693-1.216-1.555-1.604-2.58c-0.391-1.023-0.586-2.211-0.586-3.563
			c0-1.049,0.17-2.037,0.51-2.961c0.34-0.926,0.828-1.73,1.463-2.416c0.635-0.684,1.41-1.227,2.325-1.627s1.947-0.6,3.097-0.6
			c0.971,0,1.865,0.154,2.686,0.465s1.525,0.762,2.115,1.357c0.59,0.594,1.053,1.324,1.387,2.189
			c0.336,0.865,0.504,1.854,0.504,2.963c0,0.561-0.061,0.938-0.181,1.133s-0.351,0.291-0.69,0.291H561.251z M568.316,551.602
			c0-0.48-0.068-0.932-0.203-1.357c-0.135-0.424-0.338-0.797-0.607-1.117s-0.613-0.572-1.027-0.758
			c-0.416-0.186-0.898-0.277-1.447-0.277c-1.07,0-1.913,0.305-2.527,0.916c-0.615,0.609-1.008,1.475-1.178,2.594H568.316z"/>
	</g>
</g>
<g>
	<g>
		<path fill="#FF2455" d="M253.09,33.555c0,1.219-0.15,2.32-0.451,3.299c-0.299,0.98-0.747,1.816-1.342,2.506
			c-0.596,0.689-1.338,1.221-2.228,1.59s-1.925,0.555-3.104,0.555c-0.541,0-1.07-0.033-1.591-0.098s-1.065-0.166-1.635-0.307
			c0.03-0.4,0.065-0.801,0.104-1.201c0.04-0.398,0.075-0.799,0.105-1.199c0.029-0.221,0.117-0.398,0.263-0.533
			c0.145-0.135,0.353-0.201,0.622-0.201c0.17,0,0.393,0.035,0.668,0.104c0.274,0.07,0.622,0.105,1.042,0.105
			c0.57,0,1.075-0.082,1.515-0.248c0.44-0.164,0.809-0.426,1.104-0.787c0.295-0.359,0.518-0.826,0.667-1.402
			c0.149-0.574,0.226-1.271,0.226-2.092v-14.07h4.035V33.555z"/>
		<path fill="#FF2455" d="M269.964,25.875v15.389h-2.265c-0.49,0-0.801-0.225-0.93-0.674l-0.256-1.23
			c-0.63,0.641-1.324,1.158-2.084,1.553c-0.761,0.395-1.656,0.592-2.686,0.592c-0.84,0-1.582-0.143-2.228-0.428
			s-1.188-0.688-1.628-1.207c-0.439-0.52-0.771-1.137-0.997-1.852s-0.337-1.504-0.337-2.363v-9.779h3.704v9.779
			c0,0.939,0.218,1.668,0.653,2.182c0.435,0.516,1.087,0.773,1.957,0.773c0.64,0,1.24-0.143,1.8-0.428s1.09-0.678,1.59-1.178V25.875
			H269.964z"/>
		<path fill="#FF2455" d="M276.475,34.033c0.06,0.791,0.199,1.473,0.42,2.049c0.219,0.574,0.51,1.049,0.869,1.424
			c0.36,0.375,0.787,0.656,1.283,0.84c0.494,0.186,1.042,0.279,1.643,0.279c0.6,0,1.117-0.07,1.552-0.211s0.815-0.295,1.14-0.465
			c0.325-0.17,0.61-0.324,0.855-0.465s0.482-0.211,0.713-0.211c0.31,0,0.539,0.115,0.689,0.346l1.065,1.35
			c-0.41,0.48-0.87,0.883-1.38,1.207c-0.51,0.326-1.043,0.586-1.598,0.781s-1.12,0.332-1.695,0.412s-1.133,0.119-1.672,0.119
			c-1.07,0-2.065-0.178-2.985-0.531c-0.921-0.355-1.72-0.881-2.399-1.576c-0.681-0.693-1.216-1.555-1.605-2.58
			c-0.391-1.023-0.585-2.211-0.585-3.563c0-1.049,0.17-2.037,0.51-2.961c0.34-0.926,0.827-1.73,1.462-2.416
			c0.636-0.684,1.41-1.227,2.326-1.627c0.914-0.4,1.947-0.6,3.097-0.6c0.97,0,1.865,0.154,2.685,0.465
			c0.82,0.311,1.525,0.762,2.115,1.357c0.59,0.594,1.053,1.324,1.388,2.189s0.503,1.854,0.503,2.963c0,0.561-0.061,0.938-0.18,1.133
			c-0.121,0.195-0.351,0.291-0.69,0.291H276.475z M283.539,31.799c0-0.48-0.067-0.932-0.203-1.357
			c-0.135-0.424-0.337-0.797-0.607-1.117c-0.27-0.32-0.612-0.572-1.027-0.758s-0.897-0.277-1.447-0.277
			c-1.07,0-1.912,0.305-2.527,0.916c-0.615,0.609-1.008,1.475-1.178,2.594H283.539z"/>
		<path fill="#FF2455" d="M303.145,26.398v1.381c0,0.439-0.266,0.711-0.795,0.811l-1.381,0.254c0.211,0.531,0.315,1.111,0.315,1.74
			c0,0.76-0.153,1.447-0.458,2.063s-0.727,1.139-1.268,1.568c-0.539,0.43-1.178,0.762-1.912,0.996
			c-0.734,0.236-1.527,0.354-2.377,0.354c-0.301,0-0.591-0.016-0.871-0.045c-0.279-0.031-0.555-0.07-0.824-0.121
			c-0.48,0.291-0.721,0.615-0.721,0.977c0,0.309,0.143,0.537,0.428,0.682s0.662,0.248,1.133,0.307
			c0.47,0.061,1.005,0.098,1.605,0.113c0.6,0.016,1.215,0.047,1.844,0.098c0.631,0.051,1.246,0.137,1.846,0.262
			s1.135,0.322,1.605,0.594c0.469,0.27,0.848,0.637,1.132,1.102c0.285,0.465,0.428,1.063,0.428,1.793c0,0.68-0.167,1.34-0.503,1.98
			c-0.335,0.639-0.82,1.209-1.455,1.709s-1.414,0.902-2.34,1.207c-0.925,0.307-1.978,0.459-3.157,0.459
			c-1.16,0-2.17-0.113-3.03-0.338c-0.859-0.225-1.574-0.525-2.145-0.9s-0.995-0.807-1.275-1.297c-0.279-0.49-0.42-1-0.42-1.531
			c0-0.719,0.218-1.322,0.652-1.807c0.436-0.484,1.033-0.873,1.793-1.162c-0.41-0.211-0.735-0.49-0.975-0.84
			c-0.24-0.35-0.36-0.811-0.36-1.381c0-0.23,0.042-0.467,0.128-0.713c0.084-0.244,0.209-0.486,0.375-0.727
			c0.164-0.24,0.371-0.467,0.622-0.684c0.249-0.215,0.545-0.406,0.885-0.576c-0.78-0.42-1.393-0.98-1.837-1.68
			c-0.445-0.701-0.668-1.521-0.668-2.461c0-0.76,0.152-1.447,0.457-2.063s0.73-1.141,1.275-1.574
			c0.545-0.436,1.189-0.768,1.936-0.998c0.744-0.23,1.557-0.346,2.438-0.346c0.66,0,1.279,0.068,1.859,0.203s1.109,0.332,1.59,0.592
			H303.145z M299.454,41.955c0-0.301-0.091-0.547-0.271-0.736s-0.425-0.338-0.734-0.441c-0.311-0.105-0.673-0.184-1.088-0.232
			c-0.415-0.051-0.855-0.088-1.32-0.113s-0.944-0.047-1.439-0.068c-0.495-0.02-0.978-0.059-1.447-0.119
			c-0.41,0.23-0.742,0.5-0.998,0.811c-0.255,0.309-0.383,0.67-0.383,1.08c0,0.27,0.068,0.521,0.203,0.758
			c0.135,0.234,0.35,0.436,0.645,0.607c0.295,0.17,0.678,0.301,1.148,0.396c0.469,0.096,1.045,0.143,1.725,0.143
			c0.689,0,1.285-0.053,1.785-0.158c0.5-0.104,0.912-0.25,1.237-0.434c0.325-0.186,0.563-0.406,0.712-0.66
			C299.379,42.531,299.454,42.254,299.454,41.955z M295.27,33.193c0.459,0,0.859-0.063,1.199-0.188s0.623-0.297,0.848-0.518
			c0.225-0.219,0.395-0.484,0.51-0.795c0.115-0.309,0.173-0.648,0.173-1.02c0-0.76-0.228-1.361-0.683-1.807
			s-1.138-0.668-2.047-0.668c-0.91,0-1.594,0.223-2.048,0.668c-0.456,0.445-0.683,1.047-0.683,1.807
			c0,0.359,0.057,0.695,0.172,1.006c0.115,0.309,0.285,0.576,0.511,0.803c0.225,0.225,0.51,0.398,0.854,0.523
			C294.422,33.131,294.818,33.193,295.27,33.193z"/>
		<path fill="#FF2455" d="M312.024,25.635c1.14,0,2.177,0.184,3.112,0.555c0.936,0.369,1.734,0.895,2.4,1.574
			c0.664,0.68,1.178,1.51,1.537,2.49s0.54,2.076,0.54,3.285c0,1.221-0.181,2.32-0.54,3.301c-0.359,0.979-0.873,1.814-1.537,2.504
			c-0.666,0.689-1.465,1.221-2.4,1.59c-0.936,0.371-1.973,0.555-3.112,0.555c-1.15,0-2.195-0.184-3.136-0.555
			c-0.939-0.369-1.742-0.9-2.406-1.59c-0.666-0.689-1.181-1.525-1.545-2.504c-0.365-0.98-0.549-2.08-0.549-3.301
			c0-1.209,0.184-2.305,0.549-3.285c0.364-0.98,0.879-1.811,1.545-2.49c0.664-0.68,1.467-1.205,2.406-1.574
			C309.829,25.818,310.874,25.635,312.024,25.635z M312.024,38.639c1.28,0,2.228-0.43,2.843-1.289
			c0.615-0.861,0.922-2.121,0.922-3.781c0-1.658-0.307-2.924-0.922-3.795c-0.615-0.869-1.563-1.305-2.843-1.305
			c-1.3,0-2.263,0.438-2.888,1.313s-0.938,2.139-0.938,3.787c0,1.65,0.313,2.908,0.938,3.773S310.725,38.639,312.024,38.639z"/>
		<path fill="#FF2455" d="M327.279,41.504c-1.34,0-2.367-0.377-3.082-1.133c-0.715-0.754-1.072-1.797-1.072-3.127v-8.596h-1.576
			c-0.199,0-0.369-0.064-0.51-0.193c-0.14-0.131-0.21-0.326-0.21-0.586v-1.471l2.476-0.404l0.779-4.199
			c0.051-0.201,0.145-0.355,0.285-0.465c0.141-0.111,0.32-0.166,0.54-0.166h1.92v4.846h4.11v2.639h-4.11v8.34
			c0,0.48,0.118,0.855,0.353,1.125c0.234,0.271,0.558,0.406,0.968,0.406c0.229,0,0.423-0.027,0.577-0.082
			c0.155-0.057,0.29-0.113,0.405-0.174c0.114-0.059,0.218-0.117,0.308-0.172s0.18-0.082,0.27-0.082c0.11,0,0.2,0.027,0.271,0.082
			c0.069,0.055,0.145,0.137,0.225,0.248l1.11,1.799c-0.54,0.451-1.16,0.791-1.86,1.02C328.754,41.389,328.029,41.504,327.279,41.504
			z"/>
		<path fill="#FF2455" d="M336.039,34.033c0.061,0.791,0.199,1.473,0.42,2.049c0.22,0.574,0.51,1.049,0.87,1.424
			s0.787,0.656,1.282,0.84c0.495,0.186,1.043,0.279,1.643,0.279s1.117-0.07,1.553-0.211c0.435-0.141,0.814-0.295,1.14-0.465
			s0.61-0.324,0.854-0.465c0.246-0.141,0.482-0.211,0.713-0.211c0.311,0,0.54,0.115,0.69,0.346l1.065,1.35
			c-0.41,0.48-0.871,0.883-1.381,1.207c-0.51,0.326-1.043,0.586-1.598,0.781s-1.119,0.332-1.695,0.412
			c-0.574,0.08-1.132,0.119-1.672,0.119c-1.07,0-2.064-0.178-2.984-0.531c-0.921-0.355-1.721-0.881-2.4-1.576
			c-0.68-0.693-1.215-1.555-1.605-2.58c-0.39-1.023-0.584-2.211-0.584-3.563c0-1.049,0.17-2.037,0.51-2.961
			c0.34-0.926,0.826-1.73,1.462-2.416c0.636-0.684,1.41-1.227,2.325-1.627s1.947-0.6,3.098-0.6c0.97,0,1.865,0.154,2.685,0.465
			s1.524,0.762,2.115,1.357c0.59,0.594,1.052,1.324,1.388,2.189c0.334,0.865,0.502,1.854,0.502,2.963c0,0.561-0.06,0.938-0.18,1.133
			s-0.35,0.291-0.689,0.291H336.039z M343.104,31.799c0-0.48-0.066-0.932-0.202-1.357c-0.135-0.424-0.337-0.797-0.607-1.117
			s-0.612-0.572-1.027-0.758s-0.897-0.277-1.448-0.277c-1.07,0-1.912,0.305-2.527,0.916c-0.615,0.609-1.008,1.475-1.178,2.594
			H343.104z"/>
		<path fill="#FF2455" d="M360.234,29.129c-0.111,0.141-0.218,0.25-0.322,0.33c-0.105,0.08-0.258,0.121-0.458,0.121
			c-0.19,0-0.375-0.059-0.556-0.174c-0.18-0.115-0.395-0.244-0.645-0.389c-0.25-0.146-0.547-0.275-0.893-0.391
			c-0.345-0.115-0.772-0.172-1.282-0.172c-0.65,0-1.22,0.117-1.71,0.352s-0.898,0.572-1.223,1.012
			c-0.325,0.441-0.568,0.973-0.728,1.598c-0.16,0.625-0.24,1.334-0.24,2.123c0,0.82,0.087,1.551,0.263,2.189
			c0.175,0.641,0.428,1.178,0.758,1.613s0.729,0.766,1.199,0.99c0.471,0.225,1,0.338,1.59,0.338s1.068-0.072,1.434-0.219
			c0.364-0.145,0.672-0.305,0.922-0.48c0.25-0.174,0.467-0.334,0.652-0.479s0.393-0.219,0.623-0.219c0.3,0,0.525,0.115,0.675,0.346
			l1.065,1.35c-0.41,0.48-0.855,0.883-1.336,1.207c-0.479,0.326-0.977,0.586-1.492,0.781s-1.045,0.332-1.59,0.412
			s-1.088,0.119-1.627,0.119c-0.951,0-1.846-0.178-2.686-0.531c-0.84-0.355-1.575-0.873-2.205-1.553s-1.127-1.512-1.492-2.498
			c-0.365-0.984-0.548-2.107-0.548-3.367c0-1.129,0.163-2.178,0.487-3.143c0.325-0.965,0.803-1.801,1.433-2.504
			c0.63-0.705,1.41-1.258,2.341-1.658c0.93-0.4,2-0.6,3.209-0.6c1.15,0,2.158,0.184,3.023,0.555c0.864,0.369,1.643,0.9,2.332,1.59
			L360.234,29.129z"/>
		<path fill="#FF2455" d="M363.309,28.02c1.771-1.621,3.9-2.43,6.391-2.43c0.899,0,1.705,0.146,2.414,0.441
			c0.711,0.295,1.311,0.705,1.801,1.23s0.862,1.152,1.117,1.883s0.383,1.529,0.383,2.4v9.719h-1.68
			c-0.351,0-0.621-0.053-0.811-0.156c-0.189-0.105-0.34-0.318-0.45-0.639l-0.329-1.109c-0.391,0.35-0.771,0.658-1.141,0.922
			c-0.37,0.266-0.756,0.488-1.155,0.668s-0.827,0.316-1.282,0.412s-0.957,0.143-1.508,0.143c-0.65,0-1.25-0.088-1.8-0.262
			c-0.55-0.176-1.024-0.438-1.425-0.787c-0.4-0.352-0.711-0.785-0.93-1.307c-0.221-0.52-0.33-1.125-0.33-1.814
			c0-0.391,0.064-0.777,0.195-1.162c0.129-0.385,0.342-0.752,0.637-1.104c0.295-0.35,0.678-0.68,1.147-0.988
			c0.47-0.311,1.048-0.58,1.732-0.811s1.482-0.418,2.393-0.563s1.95-0.232,3.12-0.264v-0.898c0-1.031-0.221-1.793-0.66-2.289
			c-0.439-0.494-1.074-0.742-1.904-0.742c-0.601,0-1.098,0.07-1.493,0.211s-0.742,0.297-1.042,0.473
			c-0.301,0.174-0.572,0.332-0.818,0.473c-0.244,0.139-0.518,0.209-0.816,0.209c-0.261,0-0.48-0.066-0.66-0.203
			c-0.181-0.135-0.326-0.291-0.436-0.471L363.309,28.02z M371.799,34.693c-1.07,0.051-1.971,0.143-2.7,0.277
			c-0.729,0.137-1.315,0.309-1.755,0.518c-0.439,0.211-0.755,0.455-0.945,0.736c-0.189,0.279-0.285,0.584-0.285,0.914
			c0,0.65,0.193,1.115,0.578,1.395c0.385,0.281,0.887,0.422,1.508,0.422c0.76,0,1.417-0.139,1.973-0.414
			c0.555-0.273,1.097-0.691,1.627-1.252V34.693z"/>
	</g>
</g>
<g>
	
		<line fill="none" stroke="#337C98" stroke-width="10" stroke-linecap="round" stroke-linejoin="round" stroke-miterlimit="10" x1="309.763" y1="271.603" x2="309.545" y2="234.827"/>
	
		<polyline fill="none" stroke="#337C98" stroke-width="10" stroke-linecap="round" stroke-linejoin="round" stroke-miterlimit="10" points="
		321.102,265.276 309.783,277.442 298.372,265.367 	"/>
</g>
<g>
	<circle fill="#337C98" cx="309.736" cy="178.782" r="43.163"/>
</g>
<g>
	<circle fill="#337C98" cx="309.736" cy="336.186" r="43.163"/>
</g>
<g>
	<circle fill="#337C98" cx="309.736" cy="495.822" r="43.163"/>
</g>
<g>
	<circle fill="#337C98" cx="439.736" cy="434.822" r="43.163"/>
</g>
<g>
	<circle fill="#337C98" cx="178.736" cy="434.822" r="43.163"/>
</g>
<g>
	<g>
		<path fill="#FF2455" d="M42.989,555.951c0.22,0,0.415,0.086,0.585,0.256l1.59,1.725c-0.88,1.09-1.963,1.926-3.248,2.506
			c-1.284,0.58-2.826,0.869-4.627,0.869c-1.609,0-3.058-0.275-4.342-0.824c-1.285-0.551-2.383-1.314-3.293-2.295
			s-1.607-2.15-2.093-3.51c-0.485-1.361-0.728-2.846-0.728-4.455c0-1.631,0.26-3.123,0.78-4.479s1.253-2.521,2.197-3.502
			c0.945-0.98,2.073-1.742,3.383-2.287s2.76-0.818,4.351-0.818c1.579,0,2.982,0.26,4.207,0.779c1.225,0.521,2.268,1.201,3.127,2.041
			l-1.35,1.875c-0.08,0.119-0.183,0.225-0.308,0.314s-0.298,0.135-0.518,0.135c-0.149,0-0.306-0.041-0.465-0.127
			c-0.16-0.084-0.335-0.189-0.524-0.314c-0.191-0.125-0.41-0.264-0.66-0.412c-0.25-0.15-0.541-0.289-0.871-0.414
			s-0.712-0.229-1.146-0.314c-0.436-0.084-0.938-0.127-1.508-0.127c-0.971,0-1.857,0.172-2.662,0.518
			c-0.806,0.344-1.498,0.844-2.078,1.5c-0.58,0.654-1.029,1.455-1.35,2.4c-0.32,0.943-0.48,2.021-0.48,3.232
			c0,1.219,0.173,2.305,0.518,3.254c0.346,0.951,0.813,1.75,1.402,2.4s1.285,1.146,2.086,1.492c0.799,0.346,1.659,0.518,2.58,0.518
			c0.549,0,1.047-0.029,1.492-0.09c0.444-0.061,0.854-0.154,1.229-0.285c0.375-0.129,0.729-0.297,1.065-0.502
			c0.334-0.205,0.667-0.457,0.997-0.758c0.101-0.09,0.205-0.162,0.315-0.217C42.754,555.98,42.869,555.951,42.989,555.951z"/>
		<path fill="#FF2455" d="M46.994,547.822c1.77-1.621,3.9-2.43,6.39-2.43c0.899,0,1.705,0.146,2.415,0.441s1.311,0.705,1.801,1.23
			c0.489,0.525,0.861,1.152,1.117,1.883c0.254,0.73,0.383,1.529,0.383,2.4v9.719h-1.681c-0.351,0-0.62-0.053-0.81-0.156
			c-0.19-0.105-0.34-0.318-0.451-0.639l-0.329-1.109c-0.39,0.35-0.771,0.658-1.14,0.922c-0.371,0.266-0.756,0.488-1.156,0.668
			c-0.399,0.18-0.826,0.316-1.281,0.412s-0.958,0.143-1.508,0.143c-0.65,0-1.25-0.088-1.801-0.262
			c-0.549-0.176-1.024-0.438-1.424-0.787c-0.4-0.352-0.711-0.785-0.931-1.307c-0.22-0.52-0.33-1.125-0.33-1.814
			c0-0.391,0.065-0.777,0.195-1.162s0.343-0.752,0.638-1.104c0.295-0.35,0.677-0.68,1.146-0.988c0.471-0.311,1.048-0.58,1.732-0.811
			c0.686-0.23,1.482-0.418,2.393-0.563s1.951-0.232,3.121-0.264v-0.898c0-1.031-0.221-1.793-0.66-2.289
			c-0.44-0.494-1.075-0.742-1.905-0.742c-0.601,0-1.098,0.07-1.493,0.211c-0.395,0.141-0.742,0.297-1.042,0.473
			c-0.3,0.174-0.572,0.332-0.817,0.473c-0.245,0.139-0.518,0.209-0.817,0.209c-0.261,0-0.479-0.066-0.66-0.203
			c-0.181-0.135-0.325-0.291-0.435-0.471L46.994,547.822z M55.484,554.496c-1.07,0.051-1.971,0.143-2.701,0.277
			c-0.729,0.137-1.314,0.309-1.754,0.518c-0.44,0.211-0.756,0.455-0.945,0.736c-0.189,0.279-0.285,0.584-0.285,0.914
			c0,0.65,0.192,1.115,0.578,1.395c0.385,0.281,0.887,0.422,1.507,0.422c0.76,0,1.417-0.139,1.973-0.414
			c0.556-0.273,1.097-0.691,1.628-1.252V554.496z"/>
		<path fill="#FF2455" d="M66.074,548.348c0.48-0.92,1.05-1.643,1.71-2.168c0.659-0.525,1.44-0.787,2.34-0.787
			c0.71,0,1.28,0.154,1.71,0.465l-0.24,2.775c-0.05,0.18-0.122,0.307-0.217,0.381c-0.096,0.076-0.223,0.113-0.383,0.113
			c-0.15,0-0.373-0.025-0.668-0.074c-0.295-0.051-0.582-0.076-0.862-0.076c-0.41,0-0.774,0.061-1.095,0.18
			c-0.32,0.121-0.607,0.293-0.863,0.518c-0.254,0.225-0.479,0.498-0.674,0.818c-0.195,0.32-0.378,0.686-0.548,1.094v9.48h-3.705
			v-15.389h2.175c0.38,0,0.645,0.066,0.795,0.201s0.25,0.379,0.301,0.729L66.074,548.348z"/>
		<path fill="#FF2455" d="M77.519,538.777v22.289h-3.705v-22.289H77.519z"/>
		<path fill="#FF2455" d="M88.033,545.438c1.14,0,2.178,0.184,3.112,0.555c0.935,0.369,1.735,0.895,2.399,1.574
			c0.666,0.68,1.178,1.51,1.538,2.49s0.54,2.076,0.54,3.285c0,1.221-0.18,2.32-0.54,3.301c-0.36,0.979-0.872,1.814-1.538,2.504
			c-0.664,0.689-1.465,1.221-2.399,1.59c-0.935,0.371-1.973,0.555-3.112,0.555c-1.15,0-2.195-0.184-3.135-0.555
			c-0.94-0.369-1.743-0.9-2.408-1.59s-1.18-1.525-1.545-2.504c-0.365-0.98-0.547-2.08-0.547-3.301c0-1.209,0.182-2.305,0.547-3.285
			s0.88-1.811,1.545-2.49s1.468-1.205,2.408-1.574C85.838,545.621,86.883,545.438,88.033,545.438z M88.033,558.441
			c1.279,0,2.228-0.43,2.842-1.289c0.615-0.861,0.923-2.121,0.923-3.781c0-1.658-0.308-2.924-0.923-3.795
			c-0.614-0.869-1.563-1.305-2.842-1.305c-1.301,0-2.263,0.438-2.888,1.313s-0.938,2.139-0.938,3.787
			c0,1.65,0.313,2.908,0.938,3.773S86.732,558.441,88.033,558.441z"/>
		<path fill="#FF2455" d="M107.848,548.678c-0.1,0.16-0.205,0.271-0.314,0.336c-0.11,0.066-0.25,0.098-0.42,0.098
			c-0.18,0-0.373-0.049-0.578-0.15c-0.205-0.1-0.442-0.211-0.713-0.336c-0.27-0.125-0.576-0.238-0.922-0.338
			c-0.345-0.1-0.752-0.15-1.223-0.15c-0.73,0-1.303,0.156-1.717,0.465c-0.416,0.311-0.623,0.715-0.623,1.215
			c0,0.33,0.107,0.607,0.322,0.832c0.215,0.227,0.5,0.424,0.855,0.594c0.354,0.17,0.758,0.322,1.207,0.457
			c0.45,0.135,0.908,0.283,1.373,0.443s0.922,0.342,1.372,0.547s0.853,0.465,1.208,0.779c0.354,0.316,0.64,0.693,0.854,1.133
			c0.215,0.441,0.323,0.971,0.323,1.59c0,0.74-0.133,1.424-0.398,2.049c-0.265,0.625-0.657,1.164-1.178,1.619
			c-0.52,0.455-1.162,0.811-1.927,1.064c-0.765,0.256-1.647,0.383-2.647,0.383c-0.53,0-1.048-0.047-1.553-0.143
			s-0.99-0.227-1.455-0.396s-0.895-0.371-1.29-0.602c-0.396-0.229-0.742-0.479-1.042-0.75l0.854-1.408
			c0.11-0.17,0.24-0.301,0.39-0.391c0.15-0.09,0.34-0.135,0.57-0.135s0.447,0.064,0.652,0.195c0.205,0.129,0.443,0.27,0.713,0.42
			c0.27,0.148,0.588,0.289,0.953,0.42c0.364,0.129,0.826,0.193,1.387,0.193c0.439,0,0.817-0.051,1.133-0.156
			c0.314-0.105,0.574-0.242,0.779-0.412s0.355-0.369,0.451-0.594c0.094-0.225,0.142-0.457,0.142-0.697
			c0-0.359-0.107-0.654-0.322-0.885c-0.216-0.23-0.5-0.43-0.854-0.6c-0.355-0.17-0.761-0.322-1.215-0.457
			c-0.456-0.137-0.921-0.283-1.396-0.443c-0.476-0.16-0.94-0.348-1.396-0.563s-0.859-0.488-1.215-0.818
			c-0.355-0.328-0.64-0.734-0.855-1.215c-0.215-0.479-0.322-1.059-0.322-1.738c0-0.631,0.125-1.23,0.375-1.801
			s0.617-1.068,1.104-1.492c0.484-0.426,1.09-0.766,1.814-1.02c0.725-0.256,1.563-0.383,2.513-0.383c1.06,0,2.024,0.174,2.895,0.523
			c0.87,0.352,1.595,0.811,2.175,1.381L107.848,548.678z"/>
		<path fill="#FF2455" d="M131.098,550.223c0,1.59-0.264,3.049-0.795,4.379c-0.529,1.33-1.274,2.475-2.234,3.436
			c-0.96,0.959-2.115,1.705-3.465,2.234c-1.35,0.531-2.85,0.795-4.5,0.795h-8.266v-21.689h8.266c1.65,0,3.15,0.268,4.5,0.803
			s2.505,1.279,3.465,2.234s1.705,2.098,2.234,3.428C130.834,547.172,131.098,548.633,131.098,550.223z M126.959,550.223
			c0-1.191-0.158-2.258-0.473-3.203c-0.315-0.945-0.771-1.744-1.365-2.4c-0.596-0.654-1.315-1.156-2.16-1.508
			c-0.846-0.35-1.798-0.525-2.857-0.525h-4.215v15.271h4.215c1.06,0,2.012-0.176,2.857-0.525c0.845-0.35,1.564-0.854,2.16-1.508
			c0.595-0.654,1.05-1.455,1.365-2.4C126.801,552.479,126.959,551.412,126.959,550.223z"/>
		<path fill="#FF2455" d="M147.119,545.678v15.389h-2.266c-0.49,0-0.8-0.225-0.93-0.674l-0.255-1.23
			c-0.63,0.641-1.325,1.158-2.085,1.553s-1.655,0.592-2.686,0.592c-0.84,0-1.582-0.143-2.227-0.428
			c-0.646-0.285-1.188-0.688-1.628-1.207s-0.772-1.137-0.997-1.852c-0.226-0.715-0.338-1.504-0.338-2.363v-9.779h3.705v9.779
			c0,0.939,0.217,1.668,0.652,2.182c0.436,0.516,1.088,0.773,1.957,0.773c0.641,0,1.24-0.143,1.801-0.428
			c0.56-0.285,1.09-0.678,1.59-1.178v-11.129H147.119z"/>
		<path fill="#FF2455" d="M155.908,561.307c-1.34,0-2.367-0.377-3.082-1.133c-0.715-0.754-1.072-1.797-1.072-3.127v-8.596h-1.575
			c-0.2,0-0.37-0.064-0.51-0.193c-0.14-0.131-0.21-0.326-0.21-0.586v-1.471l2.475-0.404l0.78-4.199
			c0.05-0.201,0.145-0.355,0.284-0.465c0.141-0.111,0.32-0.166,0.541-0.166h1.92v4.846h4.109v2.639h-4.109v8.34
			c0,0.48,0.117,0.855,0.352,1.125c0.235,0.271,0.559,0.406,0.969,0.406c0.229,0,0.422-0.027,0.577-0.082
			c0.155-0.057,0.29-0.113,0.405-0.174c0.114-0.059,0.217-0.117,0.307-0.172s0.18-0.082,0.271-0.082c0.11,0,0.2,0.027,0.271,0.082
			c0.069,0.055,0.145,0.137,0.225,0.248l1.109,1.799c-0.539,0.451-1.16,0.791-1.859,1.02
			C157.384,561.191,156.658,561.307,155.908,561.307z"/>
		<path fill="#FF2455" d="M175.918,545.678l-8.385,19.619c-0.109,0.26-0.252,0.457-0.428,0.592
			c-0.175,0.135-0.441,0.203-0.803,0.203h-2.76l2.881-6.18l-6.226-14.234h3.255c0.29,0,0.518,0.068,0.683,0.209
			s0.288,0.301,0.368,0.48l3.27,7.98c0.109,0.27,0.203,0.539,0.277,0.809c0.075,0.271,0.147,0.545,0.218,0.826
			c0.09-0.281,0.18-0.559,0.271-0.834c0.09-0.273,0.189-0.547,0.299-0.816l3.09-7.965c0.08-0.201,0.213-0.365,0.398-0.496
			c0.185-0.129,0.393-0.193,0.622-0.193H175.918z"/>
	</g>
</g>
<g>
	
		<line fill="none" stroke="#337C98" stroke-width="10" stroke-linecap="round" stroke-linejoin="round" stroke-miterlimit="10" x1="309.763" y1="429.603" x2="309.545" y2="392.827"/>
	
		<polyline fill="none" stroke="#337C98" stroke-width="10" stroke-linecap="round" stroke-linejoin="round" stroke-miterlimit="10" points="
		321.102,423.276 309.783,435.442 298.372,423.367 	"/>
</g>
<g>
	
		<line fill="none" stroke="#337C98" stroke-width="10" stroke-linecap="round" stroke-linejoin="round" stroke-miterlimit="10" x1="390.73" y1="396.49" x2="364.918" y2="370.295"/>
	
		<polyline fill="none" stroke="#337C98" stroke-width="10" stroke-linecap="round" stroke-linejoin="round" stroke-miterlimit="10" points="
		394.441,384.048 394.818,400.66 378.22,399.97 	"/>
</g>
<g>
	
		<line fill="none" stroke="#337C98" stroke-width="10" stroke-linecap="round" stroke-linejoin="round" stroke-miterlimit="10" x1="231.006" y1="396.49" x2="256.818" y2="370.295"/>
	
		<polyline fill="none" stroke="#337C98" stroke-width="10" stroke-linecap="round" stroke-linejoin="round" stroke-miterlimit="10" points="
		227.295,384.048 226.918,400.66 243.517,399.97 	"/>
</g>
<g>
	<g>
		<path fill="#FFFFFF" d="M347.979,252.568c-0.127,0.512-0.189,0.93-0.186,1.254s0.055,0.58,0.15,0.768
			c0.096,0.189,0.231,0.318,0.408,0.391c0.176,0.072,0.375,0.107,0.6,0.107c0.336,0,0.654-0.105,0.954-0.316
			c0.3-0.213,0.562-0.512,0.786-0.895c0.224-0.385,0.402-0.84,0.533-1.369c0.133-0.527,0.198-1.104,0.198-1.727
			c0-1.041-0.161-1.957-0.485-2.748c-0.324-0.793-0.779-1.455-1.362-1.986c-0.584-0.531-1.278-0.932-2.082-1.201
			c-0.804-0.268-1.687-0.4-2.646-0.4c-1.057,0-2.033,0.197-2.929,0.594s-1.674,0.938-2.334,1.625
			c-0.659,0.689-1.176,1.5-1.548,2.438c-0.372,0.936-0.559,1.943-0.559,3.023c0,1.313,0.205,2.465,0.612,3.461
			c0.408,0.996,0.968,1.828,1.681,2.496c0.711,0.668,1.549,1.17,2.514,1.506c0.964,0.336,2.006,0.504,3.126,0.504
			c0.616,0,1.192-0.033,1.728-0.102c0.536-0.068,1.028-0.16,1.477-0.275c0.447-0.117,0.855-0.248,1.224-0.396
			s0.696-0.307,0.984-0.475c0.208-0.119,0.392-0.154,0.552-0.107c0.16,0.049,0.275,0.168,0.348,0.359l0.408,1.068
			c-0.832,0.545-1.804,0.988-2.916,1.332c-1.111,0.344-2.38,0.516-3.804,0.516c-1.448,0-2.788-0.227-4.021-0.684
			c-1.231-0.455-2.297-1.109-3.197-1.961c-0.9-0.854-1.604-1.891-2.112-3.115c-0.509-1.223-0.763-2.6-0.763-4.127
			c0-0.855,0.11-1.688,0.33-2.496c0.221-0.809,0.535-1.566,0.942-2.273c0.408-0.709,0.9-1.359,1.476-1.951
			c0.576-0.592,1.217-1.1,1.92-1.523c0.705-0.424,1.467-0.754,2.287-0.99c0.819-0.236,1.678-0.354,2.574-0.354
			c1.135,0,2.226,0.189,3.27,0.57c1.044,0.379,1.968,0.924,2.771,1.631c0.805,0.709,1.446,1.572,1.926,2.592
			c0.48,1.021,0.721,2.17,0.721,3.451c0,0.855-0.126,1.658-0.378,2.406s-0.604,1.396-1.056,1.949
			c-0.453,0.553-0.984,0.986-1.597,1.303c-0.612,0.314-1.278,0.473-1.998,0.473c-0.552,0-1.04-0.127-1.464-0.383
			s-0.716-0.668-0.876-1.236c-0.472,0.576-0.972,0.988-1.5,1.236s-1.101,0.371-1.716,0.371c-0.504,0-0.941-0.088-1.314-0.264
			c-0.371-0.176-0.684-0.418-0.936-0.727c-0.252-0.307-0.439-0.672-0.564-1.092c-0.124-0.42-0.186-0.877-0.186-1.373
			c0-0.457,0.058-0.918,0.174-1.387c0.115-0.469,0.29-0.92,0.521-1.355c0.232-0.436,0.522-0.844,0.871-1.225
			c0.348-0.379,0.756-0.711,1.224-0.996c0.468-0.283,0.995-0.508,1.584-0.672c0.588-0.164,1.233-0.246,1.938-0.246
			c0.623,0,1.155,0.049,1.596,0.145c0.439,0.096,0.863,0.232,1.271,0.408L347.979,252.568z M346.575,249.496
			c-0.257-0.047-0.521-0.072-0.792-0.072c-0.496,0-0.96,0.109-1.393,0.324c-0.432,0.217-0.806,0.508-1.121,0.877
			c-0.316,0.367-0.566,0.789-0.75,1.266c-0.185,0.477-0.276,0.971-0.276,1.482s0.11,0.91,0.33,1.193
			c0.22,0.285,0.542,0.426,0.966,0.426c0.208,0,0.418-0.031,0.63-0.096s0.414-0.178,0.606-0.342
			c0.191-0.164,0.367-0.383,0.527-0.654s0.293-0.611,0.396-1.02L346.575,249.496z"/>
		<path fill="#FFFFFF" d="M359.007,246.809v12.732c0,0.535-0.07,1.039-0.21,1.512c-0.141,0.473-0.364,0.887-0.672,1.242
			c-0.309,0.355-0.713,0.635-1.213,0.84c-0.5,0.203-1.109,0.307-1.83,0.307c-0.279,0-0.539-0.02-0.779-0.055
			s-0.488-0.094-0.744-0.174l0.107-1.596c0.025-0.16,0.089-0.264,0.193-0.307c0.104-0.045,0.303-0.066,0.6-0.066
			c0.295,0,0.546-0.029,0.75-0.09c0.203-0.061,0.365-0.156,0.486-0.287c0.119-0.133,0.205-0.307,0.258-0.523
			c0.052-0.215,0.078-0.482,0.078-0.803v-12.732H359.007z M359.414,243.221c0,0.256-0.051,0.496-0.155,0.721
			c-0.104,0.223-0.242,0.42-0.414,0.588c-0.173,0.168-0.376,0.301-0.612,0.4c-0.236,0.102-0.486,0.15-0.75,0.15
			c-0.256,0-0.496-0.049-0.72-0.15c-0.224-0.1-0.42-0.232-0.588-0.4s-0.302-0.365-0.402-0.588c-0.101-0.225-0.149-0.465-0.149-0.721
			c0-0.264,0.049-0.512,0.149-0.744s0.234-0.432,0.402-0.6s0.364-0.303,0.588-0.402s0.464-0.15,0.72-0.15
			c0.264,0,0.514,0.051,0.75,0.15s0.439,0.234,0.612,0.402c0.172,0.168,0.31,0.367,0.414,0.6S359.414,242.957,359.414,243.221z"/>
		<path fill="#FFFFFF" d="M372.639,246.809v12.313h-1.813c-0.391,0-0.639-0.18-0.743-0.541l-0.204-0.984
			c-0.504,0.514-1.061,0.928-1.668,1.242c-0.607,0.316-1.324,0.475-2.148,0.475c-0.672,0-1.266-0.113-1.781-0.342
			s-0.95-0.551-1.303-0.967c-0.352-0.416-0.617-0.91-0.798-1.48c-0.18-0.572-0.27-1.203-0.27-1.891v-7.824h2.964v7.824
			c0,0.752,0.174,1.334,0.521,1.746c0.349,0.412,0.871,0.617,1.566,0.617c0.512,0,0.992-0.113,1.439-0.342
			c0.449-0.229,0.873-0.541,1.272-0.941v-8.904H372.639z"/>
		<path fill="#FFFFFF" d="M377.847,253.336c0.048,0.633,0.159,1.18,0.336,1.639c0.176,0.461,0.407,0.84,0.696,1.141
			c0.287,0.299,0.629,0.523,1.025,0.672s0.834,0.221,1.314,0.221s0.894-0.055,1.242-0.168c0.348-0.111,0.651-0.234,0.912-0.371
			c0.26-0.137,0.487-0.26,0.684-0.373c0.195-0.111,0.386-0.168,0.57-0.168c0.248,0,0.432,0.094,0.552,0.277l0.853,1.08
			c-0.328,0.383-0.697,0.705-1.104,0.965c-0.408,0.26-0.834,0.469-1.278,0.625c-0.443,0.156-0.896,0.266-1.355,0.33
			c-0.461,0.063-0.906,0.096-1.338,0.096c-0.856,0-1.652-0.143-2.389-0.426c-0.736-0.285-1.376-0.705-1.92-1.26
			c-0.544-0.557-0.973-1.244-1.284-2.064s-0.468-1.77-0.468-2.85c0-0.84,0.136-1.631,0.408-2.371c0.271-0.74,0.662-1.383,1.17-1.932
			c0.508-0.547,1.128-0.982,1.859-1.303c0.732-0.318,1.559-0.479,2.479-0.479c0.775,0,1.492,0.123,2.148,0.371
			c0.655,0.248,1.219,0.611,1.691,1.086c0.473,0.477,0.842,1.061,1.11,1.752c0.268,0.693,0.401,1.482,0.401,2.371
			c0,0.447-0.047,0.75-0.144,0.906c-0.097,0.154-0.28,0.232-0.552,0.232H377.847z M383.498,251.549c0-0.385-0.054-0.746-0.162-1.086
			c-0.107-0.34-0.27-0.639-0.485-0.895s-0.49-0.457-0.822-0.605s-0.718-0.223-1.157-0.223c-0.856,0-1.531,0.244-2.022,0.732
			c-0.492,0.488-0.806,1.18-0.942,2.076H383.498z"/>
		<path fill="#FFFFFF" d="M399.183,247.229v1.104c0,0.354-0.212,0.568-0.636,0.648l-1.104,0.205
			c0.168,0.424,0.252,0.887,0.252,1.391c0,0.609-0.122,1.158-0.366,1.65s-0.582,0.91-1.014,1.254s-0.941,0.609-1.529,0.799
			c-0.589,0.188-1.223,0.281-1.902,0.281c-0.24,0-0.473-0.012-0.696-0.035c-0.224-0.025-0.444-0.057-0.66-0.098
			c-0.384,0.232-0.575,0.492-0.575,0.781c0,0.248,0.113,0.43,0.342,0.545c0.228,0.117,0.529,0.199,0.905,0.246
			c0.376,0.049,0.804,0.078,1.284,0.09c0.48,0.014,0.973,0.039,1.477,0.078c0.504,0.041,0.996,0.111,1.476,0.211
			s0.907,0.258,1.284,0.475c0.375,0.215,0.678,0.51,0.906,0.881c0.228,0.373,0.342,0.85,0.342,1.434
			c0,0.545-0.135,1.072-0.402,1.584s-0.656,0.969-1.164,1.369s-1.132,0.721-1.872,0.965c-0.739,0.244-1.582,0.367-2.526,0.367
			c-0.928,0-1.735-0.09-2.424-0.271c-0.688-0.18-1.26-0.42-1.716-0.719c-0.456-0.301-0.796-0.646-1.021-1.039
			c-0.224-0.391-0.336-0.799-0.336-1.223c0-0.576,0.175-1.059,0.522-1.447c0.349-0.387,0.826-0.697,1.435-0.93
			c-0.328-0.168-0.588-0.391-0.78-0.672c-0.192-0.279-0.288-0.648-0.288-1.104c0-0.184,0.033-0.375,0.102-0.57
			s0.168-0.391,0.301-0.582c0.131-0.191,0.297-0.373,0.498-0.545c0.199-0.174,0.436-0.326,0.707-0.463
			c-0.623-0.336-1.113-0.783-1.47-1.344s-0.534-1.217-0.534-1.969c0-0.607,0.122-1.158,0.366-1.65
			c0.244-0.49,0.584-0.912,1.021-1.26c0.436-0.348,0.951-0.613,1.548-0.797c0.596-0.184,1.245-0.277,1.95-0.277
			c0.527,0,1.023,0.055,1.488,0.162c0.463,0.109,0.887,0.268,1.271,0.475H399.183z M396.23,259.672c0-0.24-0.072-0.436-0.216-0.588
			c-0.144-0.15-0.341-0.27-0.589-0.354s-0.537-0.146-0.869-0.186c-0.332-0.041-0.684-0.07-1.057-0.09
			c-0.371-0.02-0.756-0.039-1.151-0.055s-0.782-0.047-1.158-0.096c-0.328,0.184-0.594,0.4-0.798,0.648s-0.307,0.535-0.307,0.863
			c0,0.217,0.055,0.418,0.162,0.605c0.108,0.189,0.28,0.352,0.517,0.486c0.235,0.137,0.542,0.242,0.918,0.318
			s0.836,0.113,1.38,0.113c0.552,0,1.027-0.041,1.428-0.125s0.73-0.201,0.99-0.348c0.26-0.148,0.45-0.324,0.57-0.529
			C396.17,260.135,396.23,259.912,396.23,259.672z M392.883,252.664c0.367,0,0.688-0.049,0.959-0.15
			c0.272-0.1,0.498-0.236,0.679-0.412c0.181-0.178,0.315-0.389,0.407-0.637c0.093-0.248,0.139-0.52,0.139-0.816
			c0-0.607-0.182-1.09-0.546-1.445s-0.91-0.535-1.638-0.535c-0.729,0-1.274,0.18-1.639,0.535c-0.363,0.355-0.546,0.838-0.546,1.445
			c0,0.289,0.046,0.557,0.138,0.805s0.229,0.461,0.408,0.641c0.18,0.182,0.408,0.32,0.684,0.42
			C392.205,252.615,392.522,252.664,392.883,252.664z"/>
		<path fill="#FFFFFF" d="M406.287,246.617c0.912,0,1.742,0.148,2.49,0.443c0.748,0.297,1.388,0.717,1.92,1.26
			c0.531,0.545,0.941,1.209,1.229,1.992c0.288,0.785,0.433,1.66,0.433,2.629c0,0.975-0.145,1.855-0.433,2.639
			c-0.288,0.785-0.698,1.453-1.229,2.004c-0.532,0.553-1.172,0.977-1.92,1.273c-0.748,0.295-1.578,0.443-2.49,0.443
			c-0.92,0-1.756-0.148-2.508-0.443c-0.752-0.297-1.395-0.721-1.926-1.273c-0.533-0.551-0.944-1.219-1.236-2.004
			c-0.293-0.783-0.438-1.664-0.438-2.639c0-0.969,0.145-1.844,0.438-2.629c0.292-0.783,0.703-1.447,1.236-1.992
			c0.531-0.543,1.174-0.963,1.926-1.26C404.531,246.766,405.367,246.617,406.287,246.617z M406.287,257.021
			c1.023,0,1.781-0.346,2.273-1.033s0.738-1.695,0.738-3.023s-0.246-2.34-0.738-3.037c-0.492-0.695-1.25-1.043-2.273-1.043
			c-1.04,0-1.811,0.35-2.311,1.051c-0.5,0.699-0.75,1.709-0.75,3.029s0.25,2.326,0.75,3.018S405.247,257.021,406.287,257.021z"/>
		<path fill="#FFFFFF" d="M422.139,249.209c-0.08,0.127-0.164,0.217-0.252,0.27s-0.2,0.078-0.336,0.078
			c-0.145,0-0.299-0.039-0.463-0.119s-0.354-0.17-0.569-0.271c-0.216-0.1-0.462-0.189-0.737-0.27
			c-0.277-0.08-0.603-0.119-0.979-0.119c-0.584,0-1.043,0.123-1.374,0.371c-0.332,0.248-0.498,0.572-0.498,0.973
			c0,0.264,0.086,0.486,0.258,0.666s0.399,0.338,0.685,0.473c0.283,0.137,0.605,0.26,0.965,0.367
			c0.361,0.107,0.727,0.227,1.099,0.354c0.372,0.129,0.738,0.273,1.099,0.438c0.359,0.164,0.682,0.373,0.965,0.625
			c0.285,0.252,0.513,0.553,0.685,0.906c0.172,0.352,0.258,0.775,0.258,1.271c0,0.592-0.106,1.139-0.317,1.639
			c-0.213,0.5-0.526,0.932-0.942,1.295c-0.416,0.365-0.931,0.648-1.542,0.852c-0.611,0.205-1.318,0.307-2.118,0.307
			c-0.424,0-0.838-0.037-1.241-0.113c-0.404-0.076-0.793-0.182-1.164-0.318c-0.373-0.137-0.717-0.297-1.033-0.48
			c-0.315-0.184-0.594-0.383-0.834-0.6l0.685-1.129c0.088-0.135,0.192-0.24,0.312-0.311c0.121-0.072,0.272-0.109,0.457-0.109
			c0.184,0,0.357,0.053,0.521,0.156s0.354,0.217,0.57,0.336c0.216,0.121,0.47,0.232,0.762,0.336
			c0.292,0.105,0.662,0.156,1.109,0.156c0.353,0,0.654-0.041,0.906-0.125s0.461-0.195,0.625-0.33
			c0.163-0.137,0.283-0.295,0.359-0.475s0.113-0.365,0.113-0.559c0-0.287-0.086-0.523-0.258-0.707s-0.399-0.344-0.684-0.48
			s-0.607-0.258-0.972-0.365c-0.364-0.109-0.736-0.227-1.116-0.355c-0.38-0.127-0.752-0.277-1.116-0.449s-0.688-0.391-0.972-0.654
			c-0.284-0.264-0.512-0.588-0.684-0.973c-0.173-0.383-0.258-0.848-0.258-1.391c0-0.504,0.1-0.984,0.299-1.441
			c0.2-0.455,0.494-0.854,0.883-1.193c0.388-0.34,0.871-0.611,1.451-0.816c0.58-0.203,1.25-0.305,2.01-0.305
			c0.849,0,1.621,0.139,2.316,0.42c0.696,0.279,1.276,0.648,1.74,1.104L422.139,249.209z"/>
	</g>
</g>
<g>
	
		<line fill="none" stroke="#337C98" stroke-width="10" stroke-linecap="round" stroke-linejoin="round" stroke-miterlimit="10" x1="309.763" y1="578.021" x2="309.545" y2="614.797"/>
	
		<polyline fill="none" stroke="#337C98" stroke-width="10" stroke-linecap="round" stroke-linejoin="round" stroke-miterlimit="10" points="
		321.102,584.348 309.783,572.182 298.372,584.257 	"/>
</g>
<g>
	
		<line fill="none" stroke="#337C98" stroke-width="10" stroke-linecap="round" stroke-linejoin="round" stroke-miterlimit="10" x1="499.006" y1="491.134" x2="524.818" y2="517.329"/>
	
		<polyline fill="none" stroke="#337C98" stroke-width="10" stroke-linecap="round" stroke-linejoin="round" stroke-miterlimit="10" points="
		495.295,503.576 494.918,486.964 511.517,487.654 	"/>
</g>
<g>
	
		<line fill="none" stroke="#337C98" stroke-width="10" stroke-linecap="round" stroke-linejoin="round" stroke-miterlimit="10" x1="122.73" y1="491.134" x2="96.918" y2="517.329"/>
	
		<polyline fill="none" stroke="#337C98" stroke-width="10" stroke-linecap="round" stroke-linejoin="round" stroke-miterlimit="10" points="
		126.441,503.576 126.818,486.964 110.22,487.654 	"/>
</g>
<g>
	
		<line fill="none" stroke="#337C98" stroke-width="10" stroke-linecap="round" stroke-linejoin="round" stroke-miterlimit="10" x1="309.763" y1="92.603" x2="309.545" y2="55.827"/>
	
		<polyline fill="none" stroke="#337C98" stroke-width="10" stroke-linecap="round" stroke-linejoin="round" stroke-miterlimit="10" points="
		321.102,86.276 309.783,98.442 298.372,86.367 	"/>
</g>
</svg>
